/* XPM */
static char * close_active_xpm[] = {
"16 16 82 1",
" 	c None",
".	c #545454",
"+	c #666565",
"@	c #5F5F5F",
"#	c #434343",
"$	c #797777",
"%	c #747373",
"&	c #E9E8E8",
"*	c #EFEEEE",
"=	c #6A6969",
"-	c #5E5E5E",
";	c #404040",
">	c #656363",
",	c #BCBBBB",
"'	c #B5B4B4",
")	c #4E4E4E",
"!	c #E7E6E6",
"~	c #9F9E9E",
"{	c #EEEDED",
"]	c #020202",
"^	c #494949",
"/	c #555555",
"(	c #464545",
"_	c #ECEBEB",
":	c #B7B6B6",
"<	c #B3B3B3",
"[	c #B1B0B0",
"}	c #575555",
"|	c #AEADAD",
"1	c #ABAAAA",
"2	c #E5E5E5",
"3	c #2E2E2E",
"4	c #2D2D2D",
"5	c #2C2C2C",
"6	c #585858",
"7	c #868686",
"8	c #292929",
"9	c #383838",
"0	c #484747",
"a	c #656565",
"b	c #454545",
"c	c #222222",
"d	c #171717",
"e	c #141414",
"f	c #090909",
"g	c #242424",
"h	c #5B5B5B",
"i	c #959494",
"j	c #181818",
"k	c #666666",
"l	c #353535",
"m	c #3E3E3E",
"n	c #252525",
"o	c #535252",
"p	c #8D8D8D",
"q	c #4A4949",
"r	c #8E8D8D",
"s	c #2B2B2B",
"t	c #262626",
"u	c #5D5D5D",
"v	c #515151",
"w	c #333333",
"x	c #6F6E6E",
"y	c #828282",
"z	c #363636",
"A	c #0F0F0F",
"B	c #868585",
"C	c #6D6C6C",
"D	c #060606",
"E	c #646464",
"F	c #A8A7A7",
"G	c #8F8F8F",
"H	c #505050",
"I	c #272727",
"J	c #797979",
"K	c #393939",
"L	c #C4C3C3",
"M	c #161616",
"N	c #1E1E1E",
"O	c #8C8C8C",
"P	c #3D3D3D",
"Q	c #313131",
"      .+@#      ",
"    $%&**&=     ",
"    -******;    ",
"   >,******'    ",
"   )!~~{{~~!]   ",
"   ^*//**//*]   ",
"   (_::<[::_]   ",
"    }!*|1*23    ",
" 45  677778  90 ",
" abc deeeef ghi ",
"jklamn    5opqrs",
"    tuvcwxyz    ",
"   ljAsBCcDej   ",
"   EFGHnIbkJb   ",
"   KLM    NON   ",
"    P      Q    "};
